<svg xmlns="http://www.w3.org/2000/svg" xmlns:xlink="http://www.w3.org/1999/xlink" width="500" zoomAndPan="magnify" viewBox="0 0 375 374.999991" height="500" preserveAspectRatio="xMidYMid meet" version="1.0"><defs><g/></defs><path fill="#ffffff" d="M 166.871094 52.289062 C 165.859375 45.101562 164.949219 38.609375 163.992188 31.796875 C 156.046875 31.902344 149.117188 34.121094 142.253906 36.058594 C 141.976562 38.027344 142.457031 39.292969 143.460938 40.804688 C 148.523438 40.734375 153.296875 38.15625 158.71875 37.695312 C 160.582031 40.636719 160.84375 43.8125 161.027344 47.433594 C 153.417969 49.085938 146.132812 51.089844 138.605469 53.625 C 135.015625 45.984375 133.265625 38.320312 130.113281 30.460938 C 143.542969 25.121094 157.082031 22.042969 171.886719 20.738281 C 173.320312 34.640625 174.683594 47.90625 176.078125 61.46875 C 168.222656 63.28125 160.726562 63.851562 153.53125 65.964844 C 146.449219 68.046875 139.578125 70.679688 132.269531 73.976562 C 123.914062 56.882812 115.65625 39.980469 107.488281 23.265625 C 115.722656 15.535156 159.472656 3.46875 169.851562 5.292969 C 171.117188 8.089844 171.367188 11.09375 170.542969 14.605469 C 162.035156 15.59375 153.636719 16.855469 145.445312 19.125 C 137.382812 21.367188 129.488281 24.089844 121.492188 27.785156 C 125.996094 39.082031 130.429688 49.96875 135.625 61.160156 C 145.777344 57.277344 155.964844 54.355469 166.863281 52.289062 Z M 166.871094 52.289062 " fill-opacity="1" fill-rule="nonzero"/><path fill="#ffffff" d="M 20.703125 184.429688 C 20.945312 168.65625 23.484375 154.078125 27.835938 139.261719 C 41.1875 143.179688 53.933594 146.917969 67.378906 150.863281 C 63.652344 165.789062 61.300781 180.648438 62.363281 196.609375 C 43.078125 198.539062 24.1875 199.234375 4.855469 200.417969 C 3.355469 177.691406 6.027344 156.453125 11.863281 135.5 C 15.363281 134.949219 17.949219 136.050781 21.101562 137.898438 C 16.457031 154.726562 13.183594 171.839844 14.132812 189.535156 L 51.34375 189.535156 C 51.367188 177.996094 52.761719 167.089844 55.191406 155.894531 C 48.199219 154.03125 41.503906 152.246094 34.496094 150.375 C 31.78125 158.074219 31.101562 165.722656 30.175781 173.355469 C 32.316406 174.730469 34.269531 174.53125 36.425781 174.3125 C 37.898438 169.050781 37.519531 163.574219 39.40625 158.578125 C 42.566406 157.910156 45.101562 158.890625 48.050781 160.066406 C 46.625 168.1875 45.824219 176.214844 45.09375 184.78125 C 36.851562 185.03125 29.105469 184.859375 20.71875 184.421875 Z M 20.703125 184.429688 " fill-opacity="1" fill-rule="nonzero"/><path fill="#ffffff" d="M 241.792969 12.738281 C 241.195312 15.476562 240.714844 18.054688 239.257812 21.09375 C 222.773438 16.570312 206.105469 13.589844 188.0625 13.753906 C 188.953125 26.199219 188.457031 38.292969 188.378906 50.835938 C 199.4375 51.511719 209.933594 52.167969 220.507812 55.210938 C 222.945312 47.878906 224.769531 40.847656 226.4375 33.878906 C 222.816406 31.84375 210.589844 29.632812 204.828125 29.851562 C 203.765625 31.335938 203.636719 33.003906 204.007812 34.753906 C 206.429688 35.984375 208.917969 35.6875 211.261719 36.125 C 213.617188 36.554688 216.074219 36.503906 218.425781 37.914062 C 219.242188 41.105469 218.019531 43.992188 216.910156 47.289062 C 209.144531 46.257812 201.585938 44.949219 193.621094 44.746094 C 193.691406 36.324219 194.03125 28.441406 194.8125 20.082031 C 209.429688 20.378906 223.171875 22.769531 237.605469 26.855469 C 233.496094 40.402344 229.566406 53.324219 225.449219 66.890625 C 210.824219 63.167969 196.261719 60.820312 180.664062 61.433594 C 179.738281 42.046875 178.847656 23.347656 177.964844 4.839844 C 188.214844 1.527344 233.027344 7.15625 241.785156 12.75 Z M 241.792969 12.738281 " fill-opacity="1" fill-rule="nonzero"/><path fill="#ffffff" d="M 249.296875 14.53125 C 270.316406 21.789062 288.386719 32.5 304.632812 46.203125 C 303.402344 49.769531 301.734375 51.746094 298.429688 53.519531 C 291.976562 48.34375 285.269531 43.09375 277.796875 39.054688 C 270.457031 35.078125 263.40625 30.4375 254.71875 27.792969 C 250.074219 39.121094 245.511719 50.230469 240.804688 61.703125 C 250.539062 66.449219 259.886719 71.246094 268.605469 77.875 C 273.160156 71.902344 277.496094 66.214844 282.109375 60.15625 C 275.957031 55.390625 269.824219 51.730469 263.558594 48.445312 C 261.363281 49.785156 261.191406 51.816406 260.058594 53.585938 C 263.800781 57.320312 269.109375 58.496094 272.683594 62.261719 C 271.839844 64.832031 269.945312 66.574219 268.453125 69.246094 C 262.183594 65.148438 255.59375 62.058594 248.699219 58.316406 C 251.703125 50.425781 255.414062 43.15625 259.144531 35.417969 C 272.59375 41.210938 284.425781 49.03125 295.800781 58.695312 C 286.742188 69.539062 278 80.015625 268.90625 90.90625 C 256.890625 82.046875 245.125 73.347656 229.824219 69.246094 C 236.355469 50.894531 242.695312 33.054688 249.296875 14.523438 Z M 249.296875 14.53125 " fill-opacity="1" fill-rule="nonzero"/><path fill="#ffffff" d="M 136.433594 355.28125 C 153.023438 360.261719 169.859375 363.050781 187.589844 363.074219 L 187.589844 325.007812 C 177.054688 324.539062 166.464844 323.664062 155.671875 321.015625 C 153.023438 327.980469 151.710938 334.894531 150 342.089844 C 157.59375 344.542969 165.023438 345.566406 172.429688 346.246094 C 173.597656 344.042969 173.71875 342.226562 173.070312 340.144531 C 168.3125 338.589844 163.015625 339.253906 158.234375 337.074219 C 158.070312 334.148438 158.417969 331.472656 160.023438 328.542969 C 167.347656 329.488281 174.699219 330.429688 182.777344 331.464844 C 182.1875 339.640625 182.589844 347.429688 181.1875 355.621094 C 166.539062 355.585938 152.730469 352.679688 138.4375 348.554688 C 141.9375 335.265625 146.144531 322.601562 150.390625 309.417969 C 165.273438 313.488281 179.820312 315.421875 195.320312 314.824219 C 196.308594 334.082031 197.273438 352.90625 198.269531 372.335938 C 175.945312 373.535156 154.851562 371 134.058594 364.636719 C 133.597656 361.113281 134.992188 358.464844 136.441406 355.269531 Z M 136.433594 355.28125 " fill-opacity="1" fill-rule="nonzero"/><path fill="#ffffff" d="M 74.777344 64.902344 C 80.269531 57.667969 102.683594 41.851562 108.707031 41.097656 C 114.945312 52.417969 121.304688 63.949219 128.082031 76.269531 C 114.800781 83.246094 103.460938 92.257812 93.632812 103.691406 C 79.414062 90.75 65.660156 78.230469 51.457031 65.308594 C 65.953125 49.839844 81.519531 36.691406 99.726562 26.714844 C 102.410156 28.902344 103.195312 31.78125 105.117188 35.070312 C 91.46875 43.449219 78.601562 52.78125 66.785156 64.78125 C 75.070312 73.191406 83.292969 81.53125 91.867188 90.246094 C 99.785156 83.109375 107.78125 76.707031 116.800781 70.695312 C 113.195312 64.5625 109.695312 58.617188 106.078125 52.480469 C 98.964844 55.796875 93.253906 60.359375 87.710938 65.082031 C 88.058594 67.503906 89.777344 68.5 91.082031 70.144531 C 95.652344 67.585938 99.0625 63.640625 103.664062 61.46875 C 106.316406 63.121094 107.175781 65.867188 109.160156 68.535156 C 103.089844 73.03125 96.90625 76.976562 91.234375 82.71875 C 85.621094 76.636719 80.269531 70.835938 74.792969 64.910156 Z M 74.777344 64.902344 " fill-opacity="1" fill-rule="nonzero"/><path fill="#ffffff" d="M 341.488281 106.867188 C 333.480469 91.804688 324.058594 77.890625 311.375 65.769531 C 302.347656 74.238281 293.832031 82.859375 285.269531 92.078125 C 292.4375 100.207031 298.867188 108.503906 304.667969 117.910156 C 311.261719 114.554688 317.339844 110.796875 323.914062 106.542969 C 320.273438 100.207031 316.417969 94.363281 311.660156 89.179688 C 309.164062 89.476562 307.902344 91.007812 306.585938 92.792969 C 309.019531 96.910156 312.519531 100.351562 314.535156 104.726562 C 312.988281 107.191406 310.632812 108.203125 308.09375 109.855469 C 303.222656 103.691406 298.402344 97.597656 293.265625 91.105469 C 299.117188 85.757812 304.691406 80.65625 310.988281 74.910156 C 321.078125 85.613281 328.570312 97.613281 335.90625 110.535156 C 323.710938 117.003906 312.113281 123.167969 300.039062 129.578125 C 292.429688 116.363281 284.042969 104.175781 272.179688 94.121094 C 285.128906 79.886719 297.804688 65.964844 310.875 51.605469 C 327.066406 66.453125 339.535156 83.386719 349.875 102.28125 C 347.429688 104.800781 344.761719 105.964844 341.488281 106.859375 Z M 341.488281 106.867188 " fill-opacity="1" fill-rule="nonzero"/><path fill="#ffffff" d="M 306.207031 231.101562 C 324.113281 237.597656 341.511719 243.910156 358.667969 250.132812 C 360.289062 257.160156 338.175781 297.015625 328.207031 305.714844 C 325.492188 304.703125 323.417969 302.824219 321.335938 299.972656 C 331.609375 286.773438 340.855469 272.886719 347.242188 256.6875 C 335.644531 251.867188 324.421875 247.207031 312.84375 242.402344 C 308.0625 251.800781 303.402344 260.804688 297.1875 269.261719 C 302.511719 274.523438 308.3125 278.71875 314.609375 282.933594 C 319.164062 276.808594 323.230469 270.753906 326.246094 264.070312 C 324.925781 262.175781 323.09375 261.6875 320.867188 260.910156 C 318.144531 265.226562 315.402344 269.570312 312.664062 273.90625 C 309.527344 273.308594 307.671875 271.410156 305.324219 269.402344 C 309.097656 262.839844 312.851562 256.308594 316.832031 249.378906 C 324.210938 252.378906 331.207031 255.503906 338.824219 259.433594 C 332.71875 272.738281 325.234375 284.546875 315.738281 295.871094 C 305.128906 287 295.046875 278.574219 284.628906 269.863281 C 293.742188 257.871094 301.238281 245.417969 306.214844 231.09375 Z M 306.207031 231.101562 " fill-opacity="1" fill-rule="nonzero"/><path fill="#ffffff" d="M 53.660156 272.011719 C 57.589844 278.785156 61.859375 284.675781 66.664062 290.144531 C 68.933594 289.535156 70.15625 288.148438 71.382812 286.410156 C 69.265625 282.089844 65.273438 278.976562 63.253906 274.417969 C 64.808594 271.882812 67.378906 270.8125 70.09375 269.304688 C 74.589844 274.984375 79.03125 280.589844 83.761719 286.5625 C 78.503906 292.550781 72.734375 297.777344 66.496094 303.34375 C 56.1875 292.625 48.109375 280.949219 40.785156 267.585938 C 52.890625 260.964844 64.695312 254.5 76.800781 247.875 C 84.113281 261.648438 93.210938 272.984375 104.34375 283.328125 C 91.542969 297.558594 78.957031 311.558594 66.023438 325.949219 C 49.722656 311.332031 36.84375 294.875 26.636719 276.394531 C 28.6875 273.980469 29.488281 273.46875 34.535156 271.320312 C 43.125 286.214844 52.914062 300.34375 64.519531 311.65625 C 73.902344 302.960938 83.007812 294.535156 92.410156 285.816406 C 84.90625 277.859375 78.519531 269.863281 72.742188 261.097656 C 66.097656 264.257812 60.296875 268.097656 53.667969 272.019531 Z M 53.660156 272.011719 " fill-opacity="1" fill-rule="nonzero"/><path fill="#ffffff" d="M 354.4375 195.53125 C 353.96875 210.328125 351.34375 224.027344 346.917969 238.191406 C 333.953125 234.132812 321.304688 230.183594 308.070312 226.039062 C 312.90625 211.507812 314.210938 196.804688 314.058594 181.457031 C 333.046875 180.589844 351.496094 179.746094 370.546875 178.871094 C 371.582031 200.910156 368.796875 221.792969 362.515625 242.226562 C 359.144531 242.679688 356.894531 241.222656 353.933594 239.804688 C 358.503906 223.566406 361.699219 207.070312 361.292969 189.527344 C 348.847656 188.871094 336.738281 189.292969 324.050781 189.363281 C 323.175781 200.214844 322.347656 210.789062 319.648438 221.484375 C 326.734375 223.589844 333.507812 225.597656 340.589844 227.699219 C 343.207031 220.195312 343.894531 212.796875 344.65625 205.523438 C 342.964844 203.683594 341.050781 204.046875 338.816406 204.128906 C 337.0625 209.5 337.429688 215.390625 335.371094 220.835938 C 332.421875 221.695312 329.890625 220.851562 326.757812 219.199219 C 328.585938 211.304688 329.140625 203.132812 330.03125 194.445312 C 338.167969 194.800781 345.839844 195.140625 354.4375 195.515625 Z M 354.4375 195.53125 " fill-opacity="1" fill-rule="nonzero"/><path fill="#ffffff" d="M 27.039062 121.597656 C 38.691406 126.261719 50.054688 130.808594 61.714844 135.476562 C 66.035156 125.640625 71 116.816406 76.800781 108.164062 C 71.875 102.847656 66.105469 99.023438 60.035156 94.972656 C 54.996094 100.691406 51.328125 106.921875 48.253906 113.535156 C 49.933594 115.140625 51.65625 115.820312 53.726562 116.199219 C 56.585938 112.828125 57.777344 108.324219 60.976562 105.042969 C 63.976562 105.433594 65.96875 107.335938 68.511719 109.570312 C 65.335938 115.683594 61.203125 121.28125 58.433594 128.355469 C 50.886719 124.828125 43.839844 121.53125 36.179688 117.941406 C 41.871094 104.566406 49.4375 93.027344 58.570312 81.472656 C 69.1875 90.175781 79.515625 98.632812 90.546875 107.667969 C 80.652344 119.269531 74.089844 132.203125 68.820312 146.488281 C 50.734375 140.03125 33.09375 133.734375 14.871094 127.226562 C 21.863281 106.566406 32.484375 88.335938 45.785156 71.394531 C 48.667969 72.761719 50.675781 74.585938 52.847656 77.269531 C 42.597656 90.78125 33.417969 105.011719 27.046875 121.582031 Z M 27.039062 121.597656 " fill-opacity="1" fill-rule="nonzero"/><path fill="#ffffff" d="M 62.113281 240.492188 C 58.417969 230.859375 55.433594 221.453125 53.613281 211.394531 C 46.269531 211.953125 39.460938 213.082031 32.308594 214.476562 C 32.527344 221.886719 34.511719 228.597656 36.59375 235.296875 C 39.082031 235.296875 40.96875 234.753906 42.792969 233.507812 C 42.28125 228.621094 39.738281 224.125 39.664062 219.117188 C 42.371094 217.765625 45.078125 218.128906 48.289062 217.503906 C 50.125 224.359375 51.933594 231.132812 53.894531 238.472656 C 46.765625 242.078125 39.414062 244.484375 31.417969 246.925781 C 26.417969 233.363281 23.265625 220.082031 22.015625 205.660156 C 35.703125 204.21875 48.78125 202.847656 62.507812 201.398438 C 64.574219 215.835938 68.164062 229.625 74.347656 243.425781 C 57.023438 251.785156 40.167969 259.914062 22.625 268.378906 C 13.222656 249.039062 7.835938 229.09375 5.460938 208.097656 C 8.800781 207.09375 11.546875 206.316406 14.910156 207.359375 C 17.007812 223.550781 20.371094 239.511719 27 255.222656 C 39.042969 250.824219 50.3125 245.425781 62.113281 240.492188 Z M 62.113281 240.492188 " fill-opacity="1" fill-rule="nonzero"/><path fill="#ffffff" d="M 205.191406 357.109375 C 202.839844 342.589844 202.136719 328.671875 200.386719 314.144531 C 215.101562 312.734375 228.773438 308.789062 242.238281 302.394531 C 250.5625 319.910156 258.558594 336.714844 266.839844 354.136719 C 247.691406 363.828125 227.992188 369.257812 207.515625 371.550781 C 205.726562 368.308594 205.605469 367.570312 205.847656 361.90625 C 222.039062 359.816406 238.132812 356.558594 253.890625 349.519531 C 249.765625 337.777344 244.445312 326.726562 239.65625 314.671875 C 229.558594 318.265625 219.6875 321.363281 209.160156 323.355469 C 209.605469 330.703125 210.507812 337.640625 211.8125 344.964844 C 219.289062 343.824219 226.195312 342.527344 232.953125 340.25 C 233.140625 337.820312 232.304688 336.09375 230.804688 334.511719 C 226.601562 334.722656 222.785156 337.074219 218.398438 336.660156 C 216.902344 334.171875 216.375 331.546875 216.453125 328.46875 C 223.382812 326.492188 230.148438 324.5625 237.492188 322.464844 C 240.199219 330.082031 243.675781 337.089844 245.390625 344.40625 C 244.671875 346.21875 243.332031 346.503906 242.167969 346.871094 C 231.730469 350.140625 221.253906 353.308594 210.335938 354.542969 C 208.601562 354.738281 207.28125 355.539062 205.199219 357.117188 Z M 205.191406 357.109375 " fill-opacity="1" fill-rule="nonzero"/><path fill="#ffffff" d="M 72.46875 331.621094 C 74.226562 328.507812 75.839844 326.433594 78.253906 324.207031 C 90.910156 334.011719 104.410156 342.46875 119.796875 349.234375 C 124.710938 337.429688 129.507812 325.917969 134.472656 314.003906 C 125.445312 309.679688 117.074219 305.199219 108.867188 299.363281 C 104.109375 305.199219 99.613281 310.742188 95.5625 317.027344 C 100.78125 321.378906 106.300781 324.628906 111.9375 327.617188 C 113.949219 326.351562 114.449219 324.507812 115.140625 322.601562 C 112.621094 319.28125 108 318.777344 105.390625 315.542969 C 105.828125 312.464844 108.089844 310.707031 109.839844 308.121094 C 115.542969 311.371094 120.996094 314.476562 127.082031 317.949219 C 124.214844 325.496094 120.570312 332.496094 116.882812 339.933594 C 104.183594 334.320312 93.074219 327.269531 82.449219 318.285156 C 91.089844 307.464844 99.441406 297 108.050781 286.207031 C 119.53125 295.582031 131.695312 302.566406 145.347656 307.71875 C 138.71875 325.859375 132.285156 343.480469 125.632812 361.6875 C 106.03125 354.507812 88.550781 344.632812 72.476562 331.613281 Z M 72.46875 331.621094 " fill-opacity="1" fill-rule="nonzero"/><path fill="#ffffff" d="M 369.785156 169.820312 C 366.640625 171.386719 364.097656 171.34375 361.007812 170.511719 C 358.871094 154.5 355.683594 138.757812 349.160156 123.332031 C 337.574219 128.046875 326.335938 132.617188 314.625 137.386719 C 317.925781 147.339844 320.710938 157.0625 322.113281 167.253906 C 329.683594 166.984375 336.5625 165.269531 344 164.464844 C 343.09375 156.625 341.488281 149.453125 339.148438 142.5 C 336.78125 142.410156 335.207031 143.164062 333.367188 144 C 333.3125 149.339844 336.34375 154.214844 335.996094 159.605469 C 333.402344 160.738281 331.042969 161.429688 328.085938 161.152344 C 326.140625 154 324.203125 146.851562 322.164062 139.363281 C 329.851562 136.390625 337.105469 133.597656 345.039062 131.253906 C 349.488281 144.769531 352.4375 158 353.757812 172.195312 C 340.109375 173.566406 327.046875 174.878906 313.507812 176.246094 C 311.992188 161.574219 308.597656 147.839844 302.074219 134.234375 C 319.140625 126.183594 335.953125 118.265625 353.449219 110.011719 C 362.574219 129.195312 367.582031 149.007812 369.777344 169.824219 Z M 369.785156 169.820312 " fill-opacity="1" fill-rule="nonzero"/><path fill="#ffffff" d="M 281.101562 273.160156 C 295.1875 286.171875 308.863281 298.796875 323.054688 311.90625 C 308.976562 327.769531 292.828125 340.113281 274.710938 350.253906 C 272.300781 347.898438 271.03125 345.371094 269.984375 342.074219 C 284.539062 333.90625 298.113281 324.425781 309.640625 312.53125 C 300.632812 303.601562 291.863281 294.914062 282.683594 285.816406 C 275.59375 292.226562 267.707031 298.757812 258.527344 304.550781 C 261.542969 311.25 265.300781 317.34375 269.101562 323.882812 C 276.394531 320.566406 282.164062 315.535156 288.175781 310.886719 C 287.382812 308.617188 286.109375 307.296875 284.277344 306.164062 C 279.953125 307.929688 276.96875 311.914062 272.519531 313.8125 C 270.203125 312.070312 269.0625 309.539062 267.125 307.117188 C 273.03125 302.441406 278.898438 298.292969 284.726562 292.84375 C 290.300781 299 295.597656 304.839844 301.222656 311.046875 C 290.800781 321.402344 279.167969 329.09375 266.101562 336.3125 C 259.5625 324.164062 253.277344 312.5 246.613281 300.117188 C 259.605469 293.027344 270.835938 284.421875 281.109375 273.160156 Z M 281.101562 273.160156 " fill-opacity="1" fill-rule="nonzero"/><path fill="#ffffff" d="M 179.132812 64.871094 C 111.550781 69.441406 60.304688 128.128906 64.875 195.707031 C 69.445312 263.285156 128.132812 314.558594 195.71875 309.988281 C 263.300781 305.417969 314.566406 246.710938 309.996094 179.128906 C 305.425781 111.542969 246.71875 60.296875 179.140625 64.871094 Z M 180.351562 82.847656 C 238.214844 78.933594 288.097656 122.480469 292.015625 180.347656 C 295.523438 232.226562 260.871094 277.695312 211.960938 289.363281 C 212.175781 288.558594 212.339844 287.707031 212.488281 286.828125 C 213.78125 282.375 214.5625 275.734375 214.085938 275.167969 C 212.785156 273.621094 219.339844 257.460938 222.457031 254.527344 C 226.585938 250.644531 228.53125 241.929688 227.367188 232.5625 C 226.503906 225.605469 226.953125 221.988281 229.933594 211.84375 C 232.242188 203.992188 234.613281 198.394531 236.503906 196.3125 C 238.128906 194.523438 241.203125 189.546875 243.316406 185.261719 C 247.371094 177.046875 255.289062 168.152344 260.210938 166.300781 C 265.140625 164.449219 269.648438 156.898438 269.183594 151.265625 C 268.632812 144.625 266.753906 141.863281 263.730469 143.28125 C 261.980469 144.105469 260.789062 143.796875 259.136719 142.070312 C 257.179688 140.027344 256.832031 140.125 256.328125 142.859375 C 256.011719 144.578125 254.867188 146.074219 253.785156 146.15625 C 252.257812 146.269531 252.351562 145.066406 254.234375 140.820312 C 255.566406 137.8125 256.613281 133.097656 256.574219 130.332031 C 256.5 125.441406 252.214844 114.167969 250.191406 113.570312 C 249.632812 113.40625 245.453125 116.59375 240.921875 120.628906 C 228.722656 131.496094 209.546875 145.25 206.222656 145.515625 C 204.625 145.644531 201.597656 145.394531 199.507812 144.972656 C 195.660156 144.195312 189.863281 146.816406 176.15625 155.507812 C 170.238281 159.261719 166.683594 160.289062 158.296875 160.664062 C 151.847656 160.953125 145.910156 162.253906 142.835938 164.0625 C 138.265625 166.75 137.933594 167.296875 138.785156 170.636719 C 139.296875 172.644531 142.492188 177.042969 145.878906 180.410156 L 152.03125 186.542969 L 148.277344 192.496094 C 146.203125 195.773438 143.90625 200.414062 143.195312 202.792969 C 142.488281 205.171875 139.726562 209.46875 137.050781 212.351562 C 131.898438 217.90625 122.144531 234.050781 119.015625 242.183594 C 118.242188 244.199219 110.316406 249.4375 104.839844 252.078125 C 92.332031 236.105469 84.324219 216.316406 82.847656 194.496094 C 78.9375 136.628906 122.484375 86.765625 180.351562 82.847656 Z M 180.351562 82.847656 " fill-opacity="1" fill-rule="nonzero"/><g fill="#000000" fill-opacity="1"><g transform="translate(115.654539, 267.559793)"><g><path d="M 3.21875 1.359375 L 10.890625 -16.8125 L 16.8125 -14.3125 C 18.914062 -13.425781 20.335938 -12.609375 21.078125 -11.859375 C 22.578125 -10.285156 22.847656 -8.367188 21.890625 -6.109375 C 21.085938 -4.191406 19.71875 -3 17.78125 -2.53125 C 15.84375 -2.070312 13.570312 -2.390625 10.96875 -3.484375 L 8.921875 -4.34375 L 6.015625 2.546875 Z M 9.8125 -6.453125 L 11.5625 -5.71875 C 15.332031 -4.125 17.773438 -4.644531 18.890625 -7.28125 C 19.367188 -8.40625 19.351562 -9.359375 18.84375 -10.140625 C 18.332031 -10.921875 17.25 -11.660156 15.59375 -12.359375 L 12.8125 -13.53125 Z M 9.8125 -6.453125 "/></g></g><g transform="translate(133.13922, 274.943932)"><g><path d="M 1.84375 0.78125 L 9.515625 -17.390625 L 15 -15.078125 C 21.039062 -12.523438 22.835938 -8.34375 20.390625 -2.53125 C 19.242188 0.164062 17.664062 2.066406 15.65625 3.171875 C 14.394531 3.859375 13.066406 4.175781 11.671875 4.125 C 10.273438 4.070312 8.578125 3.625 6.578125 2.78125 Z M 5.53125 -0.140625 L 6.921875 0.453125 C 9.585938 1.578125 11.707031 1.847656 13.28125 1.265625 C 14.851562 0.691406 16.171875 -0.84375 17.234375 -3.34375 C 18.296875 -5.875 18.546875 -7.898438 17.984375 -9.421875 C 17.421875 -10.941406 15.957031 -12.203125 13.59375 -13.203125 L 11.4375 -14.125 Z M 5.53125 -0.140625 "/></g></g><g transform="translate(150.623902, 282.32807)"><g><path d="M 19.75 -2.15625 L 16.171875 6.296875 C 14.035156 6.109375 12.128906 5.65625 10.453125 4.9375 C 7.609375 3.738281 5.675781 1.894531 4.65625 -0.59375 C 3.632812 -3.082031 3.710938 -5.726562 4.890625 -8.53125 C 6.097656 -11.375 7.953125 -13.316406 10.453125 -14.359375 C 12.960938 -15.398438 15.613281 -15.332031 18.40625 -14.15625 C 20.050781 -13.457031 21.679688 -12.453125 23.296875 -11.140625 L 22.21875 -8.578125 C 20.707031 -10.222656 19.132812 -11.394531 17.5 -12.09375 C 15.625 -12.882812 13.789062 -12.84375 12 -11.96875 C 10.207031 -11.09375 8.859375 -9.585938 7.953125 -7.453125 C 7.046875 -5.304688 6.984375 -3.257812 7.765625 -1.3125 C 8.554688 0.632812 10.015625 2.054688 12.140625 2.953125 C 12.628906 3.160156 13.265625 3.363281 14.046875 3.5625 L 16.078125 -1.234375 L 12.65625 -2.671875 L 13.546875 -4.765625 Z M 19.75 -2.15625 "/></g></g><g transform="translate(168.108584, 289.712208)"><g><path d="M 2.09375 0.890625 L 9.765625 -17.28125 L 12.40625 -16.171875 L 15.140625 0.640625 L 15.171875 0.640625 L 20.78125 -12.640625 L 23.0625 -11.671875 L 15.390625 6.5 L 12.734375 5.375 L 10.015625 -11.421875 L 9.96875 -11.4375 L 4.359375 1.84375 Z M 2.09375 0.890625 "/></g></g></g></svg>